<?xml version="1.0" standalone="no"?>
<!DOCTYPE svg PUBLIC "-//W3C//DTD SVG 20010904//EN"
 "http://www.w3.org/TR/2001/REC-SVG-20010904/DTD/svg10.dtd">
<svg version="1.0" xmlns="http://www.w3.org/2000/svg"
 width="121.000000pt" height="121.000000pt" viewBox="0 0 121.000000 121.000000"
 preserveAspectRatio="xMidYMid meet">

<g transform="translate(0.000000,121.000000) scale(0.100000,-0.100000)"
fill="#000000" stroke="none">
<path d="M723 1128 c-16 -18 -38 -47 -48 -65 -16 -28 -28 -34 -104 -53 -47
-12 -104 -32 -127 -45 -78 -46 -307 -307 -306 -351 0 -47 82 -111 128 -100 14
4 63 55 124 131 56 69 111 132 123 139 26 17 146 46 151 37 2 -3 13 -36 25
-72 12 -36 27 -73 34 -82 7 -8 63 -51 126 -96 122 -86 161 -99 208 -66 22 16
59 103 109 257 l28 88 -20 27 c-11 16 -52 52 -90 82 l-70 53 10 50 c18 85 0
95 -165 97 l-105 1 -31 -32z m-213 -218 c29 -29 25 -61 -10 -85 -24 -16 -153
-163 -182 -208 -4 -6 -18 -1 -36 14 -16 13 -37 29 -47 34 -16 10 -11 19 46 85
93 110 167 180 189 180 11 0 29 -9 40 -20z m499 -103 l32 -34 -17 -61 c-10
-34 -20 -62 -24 -62 -4 0 -12 19 -19 42 -7 23 -20 52 -28 64 -17 26 -9 84 11
84 7 0 27 -15 45 -33z m-66 -122 c17 -49 7 -60 -19 -20 -13 20 -13 65 1 65 2
0 10 -20 18 -45z"/>
<path d="M186 418 c-20 -40 -48 -93 -61 -118 -37 -67 -42 -110 -16 -162 66
-137 265 -91 265 60 0 41 -9 65 -56 148 -31 54 -59 109 -63 122 -11 39 -32 24
-69 -50z m144 -219 c0 -62 -35 -99 -92 -99 -50 0 -74 13 -94 52 -23 44 -14 82
42 177 l47 82 49 -83 c39 -67 48 -92 48 -129z"/>
</g>
</svg>
